<?xml version="1.0" encoding="UTF-8"?>
<svg data-bbox="19.999 23.5 160.001 153" viewBox="0 0 200 200" height="200" width="200" xmlns="http://www.w3.org/2000/svg" data-type="shape">
    <g>
        <path d="M145.187 176.5a6.907 6.907 0 0 1-3.213-.799L100 153.61 58.025 175.7a6.84 6.84 0 0 1-7.257-.525 6.86 6.86 0 0 1-2.741-6.746l8.017-46.788-33.958-33.135a6.86 6.86 0 0 1-1.744-7.07 6.85 6.85 0 0 1 5.562-4.695l46.929-6.826 20.988-42.569A6.845 6.845 0 0 1 100 23.5a6.844 6.844 0 0 1 6.178 3.845l20.988 42.569 46.928 6.826a6.853 6.853 0 0 1 5.563 4.695 6.86 6.86 0 0 1-1.744 7.07l-33.958 33.135 8.016 46.788a6.859 6.859 0 0 1-2.741 6.746 6.855 6.855 0 0 1-4.043 1.326zM29.088 84.279l33.967 33.144a3.963 3.963 0 0 1 1.138 3.504l-8.019 46.8 41.985-22.096a3.948 3.948 0 0 1 3.681 0l41.985 22.096-8.018-46.8a3.962 3.962 0 0 1 1.138-3.504l33.967-33.144-46.941-6.828a3.959 3.959 0 0 1-2.978-2.166L100 32.706l-20.993 42.58a3.959 3.959 0 0 1-2.978 2.166l-46.941 6.827zm69.995-53.43c.001 0 .001 0 0 0 .001 0 .001 0 0 0z"/>
    </g>
</svg>
