<svg data-bbox="15.525 19 168.96 162" viewBox="0 0 200 200" height="200" width="200" xmlns="http://www.w3.org/2000/svg" data-type="color">
    <g>
        <path d="M184.1 79.8c-1-4.1-4-6.1-8.1-7.1l-46.3-6.1-20.1-41.5c-2-4-6-6.1-10.1-6.1s-7.1 2-9.1 6.1L70.3 66.6 24 73.7c-4 0-7.1 3-8.1 6.1-1 4.1 0 8.1 3 10.1l33.2 32.4-8.1 46.6c-1 4.1 1 8.1 4 10.1 2 2 4 2 6 2s3 0 5-1l41.3-22.3 41.3 22.3c1 1 3 1 5 1s4-1 6-2c3-2 5-6.1 4-10.1l-8.1-46.6 33.2-32.4c2.4-2.1 3.4-6.1 2.4-10.1zm-47.3 39.4l9.1 51.6-46.3-24.3-45.3 24.3 9.1-51.6L26 83.8l51.4-7.1 22.2-47.6 23.2 46.6 51.4 7.1-37.4 36.4z" fill="#7c487c" data-color="1"/>
    </g>
</svg>
