<svg data-bbox="46.999 54.999 106.001 89.999" viewBox="0 0 200 200" height="200" width="200" xmlns="http://www.w3.org/2000/svg" data-type="color">
    <g>
        <path d="M144.249 95.639c-8.542-6.009-18.948-3.984-27.166-9.09-.042-6.533-1.501-12.675-6.142-18.758-1.931 5.264-3.742 9.589-5.11 14.051-3.696 12.054-3.671 12.033-15.703 10.242-6.547-.975-14.273-2.29-22.34-1.138 7.702 6.276 18.119 6.197 24.4 12.137-2.654 9.044-8.026 17.146-8.244 27.209 1.441 0 2.048.188 2.424-.029 4.526-2.607 9.022-5.268 13.518-7.927 9.596-5.676 12.434-5.275 20.6 2.134 2.107 1.912 3.583 5.311 8.255 4.649l-7.592-19.95 23.1-13.53z" fill="#FDD900" data-color="1"/>
        <path d="M129.444 116.482c-2.417-5.364-1.005-7.25 3.984-9.866 5.896-3.091 11.712-6.335 18.602-10.113 1.24-.68 1.302-2.433.123-3.215-.941-.624-1.73-1.107-2.588-1.362-6.516-1.936-13.09-3.682-19.658-5.441-4.188-1.121-7.389-2.473-8.688-7.7-1.628-6.551-4.853-12.724-7.603-18.965-1.51-3.427-4.242-4.806-8.197-4.821-3.955-.015-5.667 1.928-6.872 5.139-2.582 6.877-5.262 13.716-7.813 20.605-2.244 6.06-2.568 6.245-9.127 6.18-8.131-.081-16.264-.063-24.395.049-3.344.046-6.621.425-9.368 2.844-1.192 1.05-1.114 2.956.179 3.879 7.282 5.195 16.113 6.284 24.493 10.021-2.333 12.305-8.215 23.909-8.469 36.595-.031 1.557.951 2.964 2.449 3.378 3.326.919 6.295 2.617 9.829-.423 5.537-4.763 11.773-8.722 17.781-12.924 7.775-5.438 8.807-5.697 15.436.801 6.623 6.492 14.742 8.734 23.333 10.167 3.986.665 5.225-.932 3.871-4.893-2.287-6.698-4.403-13.498-7.302-19.935zm-15.918 7.988c-8.166-7.409-11.004-7.81-20.6-2.134-4.495 2.659-8.992 5.32-13.518 7.927-.376.217-.984.029-2.424.029.218-10.063 5.589-18.165 8.244-27.209-6.28-5.94-15.552-4.752-23.253-11.027 8.068-1.152 14.647-.946 21.194.028 12.032 1.791 12.007 1.811 15.703-10.242 1.368-4.461 3.179-8.787 5.11-14.051 4.176 5.475 5.776 10.998 6.085 16.81a3.518 3.518 0 0 0 1.982 3.003c7.876 3.788 17.353 2.487 25.241 8.035l-23.1 13.531 7.592 19.95c-4.673.662-6.149-2.738-8.256-4.65z" fill="#020202" data-color="2"/>
    </g>
</svg>
